<svg width="391" height="842" viewBox="0 0 391 842" fill="none" xmlns="http://www.w3.org/2000/svg">
    <path d="M718.073 677.088C541.278 903.38 208.072 1131.24 -25.9669 1019.32C-260.006 907.393 -484.52 386.882 -405.315 139.843C-326.11 -107.196 98.3918 -123.401 354.218 -166.47C610.044 -209.538 746.846 -242.625 822.649 -66.8843" stroke="#FEEBC8" stroke-width="2"/>
    <path d="M701.037 668.36C530.338 886.849 208.622 1106.86 -17.347 998.79C-243.316 890.724 -460.088 388.162 -383.614 149.642C-307.141 -88.8788 102.723 -104.525 349.728 -146.109C596.732 -187.692 728.817 -219.638 802.007 -49.9572" stroke="#FEEBC8" stroke-width="2"/>
    <path d="M684 659.633C519.398 870.319 209.172 1082.47 -8.72714 978.262C-226.626 874.055 -435.656 389.442 -361.914 159.44C-288.171 -70.5618 107.055 -85.6496 345.238 -125.748C583.421 -165.846 710.788 -196.651 781.364 -33.0302" stroke="#FEEBC8" stroke-width="2"/>
    <path d="M666.963 650.906C508.457 853.789 209.721 1058.08 -0.107193 957.734C-209.936 857.386 -411.224 390.722 -340.213 169.239C-269.201 -52.2447 111.387 -66.7736 340.748 -105.387C570.109 -143.999 692.76 -173.664 760.721 -16.1032" stroke="#FEEBC8" stroke-width="2"/>
    <path d="M649.927 642.179C497.517 837.258 210.271 1033.69 8.51265 937.205C-193.245 840.718 -386.792 392.002 -318.512 179.037C-250.232 -33.9275 115.718 -47.8977 336.258 -85.0255C556.798 -122.153 674.731 -150.677 740.078 0.823898" stroke="#FEEBC8" stroke-width="2"/>
    <path d="M632.89 633.452C486.577 820.728 210.82 1009.31 17.1325 916.677C-176.555 824.049 -362.36 393.282 -296.811 188.836C-231.262 -15.6105 120.05 -29.0218 331.768 -64.6645C543.486 -100.307 656.702 -127.69 719.436 17.7509" stroke="#FEEBC8" stroke-width="2"/>
    <path d="M615.853 624.725C475.637 804.198 211.37 984.918 25.7525 896.149C-159.865 807.38 -337.928 394.562 -275.11 198.634C-212.292 2.70662 124.382 -10.1459 327.278 -44.3035C530.175 -78.4611 638.673 -104.703 698.793 34.6779" stroke="#FEEBC8" stroke-width="2"/>
    <path d="M598.817 615.997C464.696 787.667 211.919 960.53 34.3723 875.621C-143.175 790.712 -313.496 395.842 -253.409 208.433C-193.323 21.0238 128.713 8.73001 322.788 -23.9424C516.863 -56.6149 620.644 -81.7158 678.15 51.605" stroke="#FEEBC8" stroke-width="2"/>
    <path d="M581.78 607.27C453.756 771.137 212.469 936.142 42.9922 855.093C-126.484 774.043 -289.064 397.122 -231.708 218.231C-174.353 39.3409 133.045 27.606 318.298 -3.58138C503.552 -34.7687 602.615 -58.7287 657.507 68.5321" stroke="#FEEBC8" stroke-width="2"/>
    <path d="M564.743 598.543C442.816 754.607 213.019 911.755 51.6121 834.564C-109.794 757.374 -264.632 398.402 -210.007 228.03C-155.383 57.658 137.377 46.4819 313.808 16.7796C490.24 -12.9226 584.587 -35.7416 636.865 85.4591" stroke="#FEEBC8" stroke-width="2"/>
    <path d="M547.707 589.816C431.875 738.076 213.568 887.367 60.2321 814.036C-93.104 740.706 -240.2 399.682 -188.307 237.828C-136.414 75.9751 141.708 65.3578 309.318 37.1407C476.929 8.92354 566.558 -12.7545 616.222 102.386" stroke="#FEEBC8" stroke-width="2"/>
    <path d="M530.67 581.089C420.935 721.546 214.118 862.979 68.8519 793.508C-76.4138 724.037 -215.767 400.961 -166.606 247.627C-117.444 94.2922 146.04 84.2337 304.829 57.5017C463.617 30.7697 548.529 10.2326 595.579 119.313" stroke="#FEEBC8" stroke-width="2"/>
    <path d="M513.633 572.362C409.995 705.016 214.667 838.591 77.4718 772.98C-59.7237 707.368 -191.335 402.241 -144.905 257.425C-98.4743 112.609 150.372 103.11 300.339 77.8627C450.306 52.6158 530.5 33.2196 574.936 136.24" stroke="#FEEBC8" stroke-width="2"/>
    <path d="M496.597 563.635C399.055 688.485 215.217 814.204 86.0917 752.452C-43.0334 690.699 -166.903 403.521 -123.204 267.224C-79.5046 130.926 154.703 121.985 295.849 98.2237C436.994 74.4619 512.471 56.2067 554.294 153.167" stroke="#FEEBC8" stroke-width="2"/>
    <path d="M479.56 554.907C388.114 671.955 215.766 789.816 94.7116 731.923C-26.3432 674.031 -142.471 404.801 -101.503 277.022C-60.5349 149.244 159.035 140.861 291.359 118.585C423.683 96.3081 494.442 79.1938 533.651 170.094" stroke="#FEEBC8" stroke-width="2"/>
    <path d="M462.523 546.18C377.174 655.425 216.316 765.428 103.332 711.395C-9.65297 657.362 -118.039 406.081 -79.8022 286.821C-41.5652 167.561 163.367 159.737 286.869 138.946C410.371 118.154 476.414 102.181 513.008 187.021" stroke="#FEEBC8" stroke-width="2"/>
    <path d="M445.487 537.453C366.234 638.894 216.866 741.041 111.951 690.867C7.03723 640.693 -93.6071 407.361 -58.1014 296.619C-22.5956 185.878 167.698 178.613 282.379 159.307C397.06 140 458.385 125.168 492.366 203.948" stroke="#FEEBC8" stroke-width="2"/>
    <path d="M428.45 528.726C355.293 622.364 217.415 716.653 120.571 670.339C23.7274 624.024 -69.175 408.641 -36.4005 306.418C-3.62597 204.195 172.03 197.489 277.889 179.668C383.748 161.846 440.356 148.155 471.723 220.875" stroke="#FEEBC8" stroke-width="2"/>
    <path d="M411.413 519.999C344.353 605.834 217.965 692.265 129.191 649.81C40.4177 607.356 -44.7429 409.921 -14.6996 316.216C15.3438 222.512 176.362 216.365 273.399 200.029C370.437 183.693 422.327 171.142 451.08 237.803" stroke="#FEEBC8" stroke-width="2"/>
    <path d="M394.377 511.272C333.413 589.303 218.514 667.877 137.811 629.282C57.1079 590.687 -20.3108 411.201 7.00129 326.015C34.3134 240.829 180.693 235.241 268.909 220.39C357.125 205.539 404.298 194.129 430.437 254.73" stroke="#FEEBC8" stroke-width="2"/>
    <path d="M377.34 502.544C322.473 572.773 219.064 643.49 146.431 608.754C73.7981 574.018 4.12125 412.481 28.7021 335.813C53.283 259.146 185.025 254.117 264.419 240.751C343.813 227.385 386.269 217.116 409.795 271.657" stroke="#FEEBC8" stroke-width="2"/>
    <path d="M360.303 493.817C311.532 556.243 219.613 619.102 155.051 588.226C90.4883 557.35 28.5534 413.761 50.4031 345.612C72.2527 277.463 189.357 272.993 259.929 261.112C330.502 249.231 368.241 240.103 389.152 288.584" stroke="#FEEBC8" stroke-width="2"/>
    <path d="M343.267 485.09C300.592 539.712 220.163 594.714 163.671 567.698C107.179 540.681 52.9855 415.041 72.1039 355.41C91.2224 295.78 193.688 291.869 255.439 281.473C317.191 271.077 350.212 263.09 368.509 305.511" stroke="#FEEBC8" stroke-width="2"/>
    <path d="M326.23 476.363C289.652 523.182 220.713 570.326 172.291 547.169C123.869 524.012 77.4175 416.32 93.8048 365.209C110.192 314.097 198.02 310.744 250.95 301.834C303.879 292.923 332.183 286.077 347.866 322.438" stroke="#FEEBC8" stroke-width="2"/>
    <path d="M309.193 467.636C278.711 506.652 221.262 545.939 180.911 526.641C140.559 507.344 101.85 417.6 115.506 375.007C129.162 332.414 202.352 329.62 246.46 322.195C290.568 314.769 314.154 309.065 327.224 339.365" stroke="#FEEBC8" stroke-width="2"/>
    <path d="M292.157 458.909C267.771 490.121 221.812 521.551 189.53 506.113C157.249 490.675 126.282 418.88 137.207 384.806C148.131 350.732 206.683 348.496 241.97 342.556C277.256 336.616 296.125 332.052 306.581 356.292" stroke="#FEEBC8" stroke-width="2"/>
    <path d="M275.12 450.181C256.831 473.591 222.361 497.163 198.15 485.585C173.939 474.006 150.714 420.16 158.907 394.604C167.101 369.049 211.015 367.372 237.48 362.917C263.945 358.462 278.097 355.039 285.938 373.219" stroke="#FEEBC8" stroke-width="2"/>
    <path d="M258.083 441.454C245.891 457.061 222.911 472.775 206.77 465.056C190.63 457.337 175.146 421.44 180.608 404.403C186.071 387.366 215.347 386.248 232.99 383.278C250.633 380.308 260.068 378.026 265.296 390.146" stroke="#FEEBC8" stroke-width="2"/>
    <path d="M241.047 432.727C234.95 440.53 223.46 448.388 215.39 444.528C207.32 440.669 199.578 422.72 202.309 414.202C205.04 405.683 219.678 405.124 228.5 403.639C237.321 402.154 242.039 401.013 244.653 407.073" stroke="#FEEBC8" stroke-width="2"/>
</svg>
